Coordinates
version=1
nRows=21
nColumns=22
inDegrees=yes

Units are S.I. units (second, meters, Newtons, ...)
If the header above contains a line with 'inDegrees', this indicates whether rotational values are in degrees (yes) or radians (no).

endheader
time	pelvis_tilt	pelvis_list	pelvis_rotation	pelvis_tx	pelvis_ty	pelvis_tz	hip_flexion_r	hip_adduction_r	hip_rotation_r	knee_angle_r	ankle_angle_r	subtalar_angle_r	hip_flexion_l	hip_adduction_l	hip_rotation_l	knee_angle_l	ankle_angle_l	subtalar_angle_l	lumbar_extension	lumbar_bending	lumbar_rotation
      1.40000000	     -9.56596247	     -3.48360898	      3.87304130	     -1.08267439	      0.88129542	     -0.63515769	     11.35609676	     -1.34427631	     -0.02861241	    -10.94834650	     13.37130403	     -0.43495384	     14.57473025	     -4.81606439	     -4.88718401	    -20.34018296	     18.12835024	      1.70750372	      3.67752748	      1.25979068	     12.70257746
      1.41000000	     -9.63661024	     -3.54025215	      3.86926567	     -1.08162276	      0.88111967	     -0.63603679	     11.25630397	     -1.35972609	     -0.08069754	    -10.76766352	     13.37097114	     -0.30981198	     14.60482000	     -4.80857015	     -4.86055409	    -20.40527677	     18.27782503	      1.63930169	      3.74431850	      1.26985124	     12.80739601
      1.42000000	     -9.68539923	     -3.61312142	      3.88017191	     -1.08053705	      0.88097438	     -0.63700032	     11.13536476	     -1.36674728	     -0.15056731	    -10.59971389	     13.34941146	      0.01101782	     14.61790654	     -4.81060760	     -4.79671956	    -20.48087587	     18.41102389	      1.46593844	      3.78432647	      1.30076348	     12.90607008
      1.43000000	     -9.76052758	     -3.62992539	      3.88151002	     -1.07936841	      0.88078632	     -0.63805573	     11.04451472	     -1.44093450	     -0.19636423	    -10.45373737	     13.40207246	      0.11280436	     14.61531463	     -4.74462172	     -4.76923423	    -20.49494507	     18.55260972	      1.41557986	      3.85793578	      1.27480910	     12.98693594
      1.44000000	     -9.79760670	     -3.66791845	      3.91028549	     -1.07816504	      0.88064678	     -0.63922445	     10.91394545	     -1.50425625	     -0.27438952	    -10.32011615	     13.42552069	      0.51633630	     14.58410201	     -4.68904424	     -4.68038668	    -20.52901857	     18.68529732	      1.20444018	      3.88618643	      1.27371774	     13.06546041
      1.45000000	     -9.86316161	     -3.67565654	      3.92790535	     -1.07691702	      0.88045459	     -0.64046510	     10.83392935	     -1.60587121	     -0.33805300	    -10.23361192	     13.49829173	      0.80795831	     14.56014526	     -4.59477431	     -4.61260253	    -20.53316128	     18.81341936	      1.05659078	      3.94725577	      1.24337509	     13.13859310
      1.46000000	     -9.93419724	     -3.69404801	      3.94660771	     -1.07562298	      0.88023508	     -0.64176061	     10.76383287	     -1.69584490	     -0.36725286	    -10.15835067	     13.55798611	      0.89777534	     14.53874830	     -4.50975474	     -4.54796773	    -20.53990051	     18.97933270	      1.01367729	      4.01688482	      1.22587414	     13.19590357
      1.47000000	     -9.98596779	     -3.68984486	      4.00522517	     -1.07433178	      0.88002321	     -0.64322891	     10.71681392	     -1.83161075	     -0.48548885	    -10.18122193	     13.67825796	      1.30284495	     14.50224723	     -4.37726842	     -4.40538233	    -20.55097659	     19.09292858	      0.80079229	      4.05601111	      1.18671527	     13.22968919
      1.48000000	    -10.05540774	     -3.67887630	      4.03738525	     -1.07298530	      0.87976772	     -0.64472277	     10.70795865	     -1.97089649	     -0.53208314	    -10.23870834	     13.79349747	      1.59434336	     14.46309645	     -4.24067680	     -4.30709495	    -20.54226254	     19.23622961	      0.65050834	      4.11689273	      1.14335765	     13.27989816
      1.49000000	    -10.11528094	     -3.65152189	      4.08237769	     -1.07161756	      0.87949961	     -0.64631888	     10.73118535	     -2.13391042	     -0.58611848	    -10.38418660	     13.94577650	      1.83223025	     14.40904984	     -4.07682330	     -4.18578175	    -20.52973458	     19.37008593	      0.52993251	      4.16164468	      1.08501899	     13.31462910
      1.50000000	    -10.16933937	     -3.60052262	      4.12660982	     -1.07023610	      0.87921055	     -0.64800035	     10.80412649	     -2.32752510	     -0.61480270	    -10.63880599	     14.13422851	      2.07929705	     14.33812008	     -3.88229257	     -4.06642344	    -20.50698230	     19.49633772	      0.40456161	      4.19340073	      1.00412173	     13.34130003
      1.51000000	    -10.23671421	     -3.52964316	      4.16420112	     -1.06880750	      0.87887587	     -0.64976083	     10.94244292	     -2.54928978	     -0.62053782	    -10.99389135	     14.33570940	      2.46425653	     14.25522832	     -3.65821428	     -3.94610756	    -20.44831774	     19.62953291	      0.20197265	      4.24063717	      0.90323392	     13.37531902
      1.52000000	    -10.25745617	     -3.43523968	      4.21331413	     -1.06736198	      0.87855800	     -0.65159917	     11.10289203	     -2.79516628	     -0.62421215	    -11.49561091	     14.63440630	      2.60659845	     14.12830414	     -3.41125313	     -3.84964850	    -20.40637383	     19.75262145	      0.13739669	      4.22356981	      0.78028579	     13.38562887
      1.53000000	    -10.30983175	     -3.31135867	      4.24377780	     -1.06591910	      0.87816725	     -0.65350609	     11.37891480	     -3.08112244	     -0.58214280	    -12.14510810	     14.92232706	      2.95003059	     14.00644810	     -3.12114295	     -3.74267121	    -20.32106751	     19.86835898	     -0.04012608	      4.23611120	      0.62680815	     13.42929409
      1.54000000	    -10.32095360	     -3.17469989	      4.28468170	     -1.06446402	      0.87778104	     -0.65548383	     11.68514872	     -3.38227010	     -0.52695809	    -12.94068804	     15.27329508	      3.22376215	     13.85148316	     -2.81952441	     -3.65250077	    -20.26111724	     19.99510498	     -0.17274409	      4.19095293	      0.46176558	     13.45888039
      1.55000000	    -10.30594599	     -3.01117062	      4.32858551	     -1.06298960	      0.87740188	     -0.65752001	     12.03943770	     -3.71244215	     -0.44366898	    -13.88317380	     15.63296585	      3.36796458	     13.65199104	     -2.48673202	     -3.56262204	    -20.17655355	     20.09700405	     -0.22282498	      4.10633432	      0.26880031	     13.48226916
      1.56000000	    -10.30098726	     -2.85049143	      4.35952770	     -1.06150896	      0.87696262	     -0.65958700	     12.49748406	     -4.04291360	     -0.32173012	    -14.99407404	     15.97943571	      3.69805461	     13.45833117	     -2.15804513	     -3.50205994	    -20.08604331	     20.23602841	     -0.36569068	      4.02821435	      0.08243215	     13.50401406
      1.57000000	    -10.25273604	     -2.67017043	      4.40006181	     -1.06000051	      0.87657175	     -0.66170923	     12.98523306	     -4.39213123	     -0.16971150	    -16.25178947	     16.29570583	      3.88879515	     13.20355978	     -1.80767484	     -3.43447117	    -19.97104836	     20.34096690	     -0.42188081	      3.89089842	     -0.12363344	     13.51111205
      1.58000000	    -10.18261855	     -2.49695814	      4.44289265	     -1.05849311	      0.87619369	     -0.66387561	     13.53721260	     -4.73213260	      0.02283177	    -17.66881911	     16.55734122	      4.11162144	     12.92961161	     -1.46580995	     -3.37275069	    -19.86359495	     20.46011452	     -0.48778444	      3.71674631	     -0.31518403	     13.50566097
      1.59000000	    -10.07260894	     -2.32965515	      4.49902507	     -1.05699877	      0.87586222	     -0.66609038	     14.13137809	     -5.06116746	      0.26053239	    -19.24077258	     16.75878975	      4.30994294	     12.62550739	     -1.13096736	     -3.30156350	    -19.77647538	     20.58278494	     -0.53659061	      3.48241742	     -0.49604303	     13.47502542
      1.60000000	     -9.95989063	     -2.18157346	      4.54876613	     -1.05547325	      0.87555348	     -0.66831016	     14.82192884	     -5.36226311	      0.53590625	    -20.98753184	     16.82709189	      4.57158682	     12.30494894	     -0.81957553	     -3.24092624	    -19.66506432	     20.68946815	     -0.60900141	      3.24173474	     -0.65248689	     13.42620890
